<?xml version="1.0" encoding="UTF-8"?>
<svg xmlns="http://www.w3.org/2000/svg" xmlns:xlink="http://www.w3.org/1999/xlink"
     width="600.0" height="235.4" viewBox="0 0 600.0 235.4">
<defs>
</defs>
<g>
<rect x="0.0" y="0.0" width="600.0" height="235.4" fill="#ffffff" opacity="1.0" />
<g>
<text x="174.1640625" y="48.9" font-size="24" fill="#2c3e50" font-family="Noto Sans CJK JP, Noto Sans, DejaVu Sans, Arial, Liberation Sans, FreeSans, sans-serif" font-weight="bold" font-style="normal">Markdown 富文本演示</text>
</g>
<g>
<text x="24.0" y="87.8" font-size="16" fill="#333333" font-family="Noto Sans CJK JP, Noto Sans, DejaVu Sans, Arial, Liberation Sans, FreeSans, sans-serif" font-weight="normal" font-style="normal" xml:space="preserve">This has </text>
<text x="88.5625" y="87.8" font-size="16" fill="#333333" font-family="Noto Sans CJK JP, Noto Sans, DejaVu Sans, Arial, Liberation Sans, FreeSans, sans-serif" font-weight="bold" font-style="normal" xml:space="preserve">bold</text>
<text x="124.21875" y="87.8" font-size="16" fill="#333333" font-family="Noto Sans CJK JP, Noto Sans, DejaVu Sans, Arial, Liberation Sans, FreeSans, sans-serif" font-weight="normal" font-style="normal" xml:space="preserve">, </text>
<text x="132.25" y="87.8" font-size="16" fill="#333333" font-family="Noto Sans CJK JP, Noto Sans, DejaVu Sans, Arial, Liberation Sans, FreeSans, sans-serif" font-weight="normal" font-style="italic" xml:space="preserve">italic</text>
<text x="168.8125" y="87.8" font-size="16" fill="#333333" font-family="Noto Sans CJK JP, Noto Sans, DejaVu Sans, Arial, Liberation Sans, FreeSans, sans-serif" font-weight="normal" font-style="normal" xml:space="preserve">, and </text>
<text x="209.125" y="87.8" font-size="16" fill="#333333" font-family="Noto Sans CJK JP, Noto Sans, DejaVu Sans, Arial, Liberation Sans, FreeSans, sans-serif" font-weight="bold" font-style="normal" xml:space="preserve">both </text>
<text x="250.03125" y="87.8" font-size="16" fill="#333333" font-family="Noto Sans CJK JP, Noto Sans, DejaVu Sans, Arial, Liberation Sans, FreeSans, sans-serif" font-weight="bold" font-style="italic" xml:space="preserve">nested</text>
<text x="303.828125" y="87.8" font-size="16" fill="#333333" font-family="Noto Sans CJK JP, Noto Sans, DejaVu Sans, Arial, Liberation Sans, FreeSans, sans-serif" font-weight="bold" font-style="normal" xml:space="preserve"> styles</text>
<text x="353.5625" y="87.8" font-size="16" fill="#333333" font-family="Noto Sans CJK JP, Noto Sans, DejaVu Sans, Arial, Liberation Sans, FreeSans, sans-serif" font-weight="normal" font-style="normal" xml:space="preserve">.</text>
</g>
<g>
<text x="24.0" y="126.55" font-size="15" fill="#333333" font-family="Noto Sans CJK JP, Noto Sans, DejaVu Sans, Arial, Liberation Sans, FreeSans, sans-serif" font-weight="normal" font-style="normal" xml:space="preserve">Install with </text>
<rect x="104.828125" y="112.55" width="198.0" height="18.0" fill="#f0f0f0" rx="2" ry="2" />
<text x="104.828125" y="126.55" font-size="15" fill="#333333" font-family="Noto Sans Mono, DejaVu Sans Mono, Courier New, Liberation Mono, FreeMono, monospace" font-weight="normal" font-style="normal" xml:space="preserve">pip install latticesvg</text>
<text x="302.828125" y="126.55" font-size="15" fill="#333333" font-family="Noto Sans CJK JP, Noto Sans, DejaVu Sans, Arial, Liberation Sans, FreeSans, sans-serif" font-weight="normal" font-style="normal" xml:space="preserve"> and run </text>
<rect x="363.875" y="112.55" width="126.0" height="18.0" fill="#f0f0f0" rx="2" ry="2" />
<text x="363.875" y="126.55" font-size="15" fill="#333333" font-family="Noto Sans Mono, DejaVu Sans Mono, Courier New, Liberation Mono, FreeMono, monospace" font-weight="normal" font-style="normal" xml:space="preserve">python demo.py</text>
<text x="489.875" y="126.55" font-size="15" fill="#333333" font-family="Noto Sans CJK JP, Noto Sans, DejaVu Sans, Arial, Liberation Sans, FreeSans, sans-serif" font-weight="normal" font-style="normal" xml:space="preserve">.</text>
</g>
<g>
<text x="24.0" y="165.05" font-size="15" fill="#333333" font-family="Noto Sans CJK JP, Noto Sans, DejaVu Sans, Arial, Liberation Sans, FreeSans, sans-serif" font-weight="normal" font-style="normal" xml:space="preserve">This is </text>
<text x="71.09375" y="165.05" font-size="15" fill="#333333" font-family="Noto Sans CJK JP, Noto Sans, DejaVu Sans, Arial, Liberation Sans, FreeSans, sans-serif" font-weight="normal" font-style="normal" text-decoration="line-through" xml:space="preserve">no longer valid</text>
<text x="175.09375" y="165.05" font-size="15" fill="#333333" font-family="Noto Sans CJK JP, Noto Sans, DejaVu Sans, Arial, Liberation Sans, FreeSans, sans-serif" font-weight="normal" font-style="normal" xml:space="preserve"> updated information.</text>
</g>
<g>
<text x="24.0" y="205.60000000000002" font-size="16" fill="#333333" font-family="Noto Sans CJK JP, Noto Sans, DejaVu Sans, Arial, Liberation Sans, FreeSans, sans-serif" font-weight="normal" font-style="normal" xml:space="preserve">The equation </text>
<g transform="translate(126.734375,192.57215200000002)"><svg style="vertical-align: -0.025ex;" width="60.06" height="13.20" role="img" focusable="false" viewBox="0 -833.9 3845.1 844.9"><defs><path id="MJX-1-MM-I-1D438" d="M763 653C766 680 761 680 736 680L231 680C211 680 201 680 201 660C201 649 210 649 229 649C266 649 294 649 294 631C294 627 294 625 289 607L157 78C147 39 145 31 66 31C49 31 38 31 38 12C38 0 47 0 66 0L585 0C608 0 609 1 616 17L708 233C710 238 713 247 713 247C713 247 713 258 701 258C692 258 690 252 688 246C623 98 586 31 415 31L269 31C255 31 253 31 247 32C237 33 234 34 234 42C234 45 234 47 239 65L307 338L406 338C491 338 491 317 491 292C491 285 491 273 484 243C482 238 481 235 481 232C481 227 485 221 494 221C502 221 505 226 509 241L566 475C566 481 561 486 554 486C545 486 543 480 540 468C519 392 501 369 409 369L315 369L375 610C384 645 385 649 429 649L570 649C692 649 722 620 722 538C722 514 722 512 718 485C718 479 717 472 717 467C717 462 720 455 729 455C740 455 741 461 743 480Z"/><path id="MJX-1-MM-N-3D" d="M722 347C722 358 713 367 702 367L76 367C65 367 56 358 56 347C56 336 65 327 76 327L702 327C713 327 722 336 722 347M722 153C722 164 713 173 702 173L76 173C65 173 56 164 56 153C56 142 65 133 76 133L702 133C713 133 722 142 722 153Z"/><path id="MJX-1-MM-I-1D45A" d="M848 143C848 153 839 153 836 153C826 153 826 150 821 135C806 82 774 11 719 11C702 11 695 21 695 44C695 69 704 93 713 115C732 167 774 278 774 335C774 400 734 442 659 442C584 442 533 398 496 345C495 358 492 392 464 416C439 437 407 442 382 442C292 442 243 378 226 355C221 412 179 442 134 442C88 442 69 403 60 385C42 350 29 291 29 288C29 278 41 278 41 278C51 278 52 279 58 301C75 372 95 420 131 420C147 420 162 412 162 374C162 353 159 342 146 290L88 59C85 44 79 21 79 16C79-2 93-11 108-11C120-11 138-3 145 17C146 19 158 66 164 91L186 181C192 203 198 225 203 248L216 298C231 329 284 420 379 420C424 420 433 383 433 350C433 325 426 297 418 267L390 151C380 114 379 108 370 75C366 55 357 21 357 16C357-2 371-11 386-11C417-11 423 14 431 46L491 287C494 300 547 420 656 420C699 420 710 386 710 350C710 293 668 179 648 126C639 102 635 91 635 71C635 24 670-11 717-11C811-11 848 135 848 143Z"/><path id="MJX-1-MM-I-1D450" d="M430 107C430 113 424 120 418 120C413 120 411 118 405 110C326 11 217 11 205 11C142 11 115 60 115 120C115 161 135 258 169 320C200 377 255 420 310 420C344 420 382 407 396 380C380 380 366 380 352 366C336 351 334 334 334 327C334 303 352 292 371 292C400 292 427 316 427 356C427 405 380 442 309 442C174 442 41 299 41 158C41 68 99-11 203-11C346-11 430 95 430 107Z"/><path id="MJX-1-MM-N-32" d="M449 174L424 174C419 144 412 100 402 85C395 77 329 77 307 77L127 77L233 180C389 318 449 372 449 472C449 586 359 666 237 666C124 666 50 574 50 485C50 429 100 429 103 429C120 429 155 441 155 482C155 508 137 534 102 534C94 534 92 534 89 533C112 598 166 635 224 635C315 635 358 554 358 472C358 392 308 313 253 251L61 37C50 26 50 24 50 0L421 0Z"/></defs><g stroke="currentColor" fill="currentColor" stroke-width="0" transform="scale(1,-1)"><g data-mml-node="math" data-latex="E = mc^2"><g data-mml-node="mi" data-latex="E"><use data-c="1D438" xlink:href="#MJX-1-MM-I-1D438"/></g><g data-mml-node="mo" data-latex="=" transform="translate(1041.8,0)"><use data-c="3D" xlink:href="#MJX-1-MM-N-3D"/></g><g data-mml-node="mi" data-latex="m" transform="translate(2097.6,0)"><use data-c="1D45A" xlink:href="#MJX-1-MM-I-1D45A"/></g><g data-mml-node="msup" data-latex="c^2" transform="translate(2975.6,0)"><g data-mml-node="mi" data-latex="c"><use data-c="1D450" xlink:href="#MJX-1-MM-I-1D450"/></g><g data-mml-node="mn" transform="translate(466,363) scale(0.707)" data-latex="2"><use data-c="32" xlink:href="#MJX-1-MM-N-32"/></g></g></g></g></svg></g>
<text x="186.792271" y="205.60000000000002" font-size="16" fill="#333333" font-family="Noto Sans CJK JP, Noto Sans, DejaVu Sans, Arial, Liberation Sans, FreeSans, sans-serif" font-weight="normal" font-style="normal" xml:space="preserve"> is well known. Also consider </text>
<g transform="translate(402.245396,192.39955200000003)"><svg style="vertical-align: -0.806ex;" width="95.39" height="18.77" role="img" focusable="false" viewBox="0 -845.1 6106.9 1201.5"><defs><path id="MJX-2-MM-SO-222B" d="M609 722C609 770 559 805 499 805C404 805 365 708 348 632C336 577 300 295 291 174L272-75C259-239 223-284 166-284C153-284 123-281 102-263C131-259 139-236 139-222C139-193 117-180 98-180C78-180 56-193 56-223C56-271 106-306 166-306C261-306 309-219 331-129C344-77 380 214 388 325L407 574C421 758 455 783 500 783C510 783 541 781 563 762C534 758 526 735 526 721C526 692 548 679 567 679C587 679 609 692 609 722Z"/><path id="MJX-2-MM-N-221E" d="M943 216C943 327 873 442 754 442C610 442 521 294 508 272C441 353 440 354 418 373C386 400 327 442 248 442C132 442 56 333 56 215C56 104 126-11 245-11C389-11 478 137 491 159C558 78 559 77 581 58C613 31 672-11 751-11C867-11 943 98 943 216M921 216C921 116 851 37 767 37C721 37 680 60 635 109C607 140 562 203 534 237C572 305 648 410 761 410C867 410 921 306 921 216M465 194C427 126 351 21 238 21C132 21 78 125 78 215C78 315 148 394 232 394C278 394 319 371 364 322C392 291 437 228 465 194Z"/><path id="MJX-2-MM-N-30" d="M460 320C460 400 455 480 420 554C374 650 292 666 250 666C190 666 117 640 76 547C44 478 39 400 39 320C39 245 43 155 84 79C127-2 200-22 249-22C303-22 379-1 423 94C455 163 460 241 460 320M377 332C377 257 377 189 366 125C351 30 294 0 249 0C210 0 151 25 133 121C122 181 122 273 122 332C122 396 122 462 130 516C149 635 224 644 249 644C282 644 348 626 367 527C377 471 377 395 377 332Z"/><path id="MJX-2-MM-I-1D452" d="M430 107C430 113 424 120 418 120C413 120 411 118 405 110C326 11 217 11 205 11C127 11 118 95 118 127C118 139 119 170 134 231L187 231C216 231 290 233 340 254C410 284 415 343 415 357C415 401 377 442 308 442C197 442 46 345 46 170C46 68 105-11 203-11C346-11 430 95 430 107M382 357C382 253 222 253 181 253L140 253C179 405 282 420 308 420C355 420 382 391 382 357Z"/><path id="MJX-2-MM-N-2212" d="M722 250C722 261 713 270 702 270L76 270C65 270 56 261 56 250C56 239 65 230 76 230L702 230C713 230 722 239 722 250Z"/><path id="MJX-2-MM-I-1D465" d="M527 376C527 428 468 442 434 442C376 442 341 389 329 366C304 432 250 442 221 442C117 442 60 313 60 288C60 278 72 278 72 278C80 278 83 280 85 289C119 395 185 420 219 420C238 420 273 411 273 353C273 322 256 255 219 115C203 53 168 11 124 11C118 11 95 11 74 24C99 29 121 50 121 78C121 105 99 113 84 113C54 113 29 87 29 55C29 9 79-11 123-11C189-11 225 59 228 65C240 28 276-11 336-11C439-11 496 118 496 143C496 153 487 153 484 153C475 153 473 149 471 142C438 35 370 11 338 11C299 11 283 43 283 77C283 99 289 121 300 165L334 302C340 328 363 420 433 420C438 420 462 420 483 407C455 402 435 377 435 353C435 337 446 318 473 318C495 318 527 336 527 376Z"/><path id="MJX-2-MM-I-1D451" d="M516 683C516 683 516 694 503 694C488 694 393 685 376 683C368 682 362 677 362 664C362 652 371 652 386 652C434 652 436 645 436 635L433 615L373 378C355 415 326 442 281 442C164 442 40 295 40 149C40 55 95-11 173-11C193-11 243-7 303 64C311 22 346-11 394-11C429-11 452 12 468 44C485 80 498 143 498 143C498 153 489 153 486 153C476 153 475 149 472 135C455 70 437 11 396 11C369 11 366 37 366 57C366 81 368 88 372 105M361 332C361 326 359 320 358 315L308 119C303 101 303 99 288 82C244 27 203 11 175 11C125 11 111 66 111 105C111 155 143 278 166 324C197 383 242 420 282 420C347 420 361 338 361 332Z"/><path id="MJX-2-MM-N-3D" d="M722 347C722 358 713 367 702 367L76 367C65 367 56 358 56 347C56 336 65 327 76 327L702 327C713 327 722 336 722 347M722 153C722 164 713 173 702 173L76 173C65 173 56 164 56 153C56 142 65 133 76 133L702 133C713 133 722 142 722 153Z"/><path id="MJX-2-MM-N-31" d="M419 0L419 31L387 31C297 31 294 42 294 79L294 640C294 664 294 666 271 666C209 602 121 602 89 602L89 571C109 571 168 571 220 597L220 79C220 43 217 31 127 31L95 31L95 0C130 3 217 3 257 3C297 3 384 3 419 0Z"/></defs><g stroke="currentColor" fill="currentColor" stroke-width="0" transform="scale(1,-1)"><g data-mml-node="math" data-latex="\int_0^\infty e^{-x} dx = 1"><g data-mml-node="msubsup" data-latex="\infty"><g data-mml-node="mo" data-latex="\int" transform="translate(0 0.5)"><use data-c="222B" xlink:href="#MJX-2-MM-SO-222B"/></g><g data-mml-node="mi" transform="translate(754,532.6) scale(0.707)" data-latex="infty"><use data-c="221E" xlink:href="#MJX-2-MM-N-221E"/></g><g data-mml-node="mn" transform="translate(578,-340.9) scale(0.707)" data-latex="0"><use data-c="30" xlink:href="#MJX-2-MM-N-30"/></g></g><g data-mml-node="msup" data-latex="e^{-x}" transform="translate(1677.8,0)"><g data-mml-node="mi" data-latex="e"><use data-c="1D452" xlink:href="#MJX-2-MM-I-1D452"/></g><g data-mml-node="TeXAtom" transform="translate(499,363) scale(0.707)" data-latex="{-x}" data-mjx-texclass="ORD"><g data-mml-node="mo" data-latex="-"><use data-c="2212" xlink:href="#MJX-2-MM-N-2212"/></g><g data-mml-node="mi" data-latex="x" transform="translate(778,0)"><use data-c="1D465" xlink:href="#MJX-2-MM-I-1D465"/></g></g></g><g data-mml-node="mi" data-latex="d" transform="translate(3181.4,0)"><use data-c="1D451" xlink:href="#MJX-2-MM-I-1D451"/></g><g data-mml-node="mi" data-latex="x" transform="translate(3701.4,0)"><use data-c="1D465" xlink:href="#MJX-2-MM-I-1D465"/></g><g data-mml-node="mo" data-latex="=" transform="translate(4551.1,0)"><use data-c="3D" xlink:href="#MJX-2-MM-N-3D"/></g><g data-mml-node="mn" data-latex="1" transform="translate(5606.9,0)"><use data-c="31" xlink:href="#MJX-2-MM-N-31"/></g></g></g></svg></g>
<text x="497.637964" y="205.60000000000002" font-size="16" fill="#333333" font-family="Noto Sans CJK JP, Noto Sans, DejaVu Sans, Arial, Liberation Sans, FreeSans, sans-serif" font-weight="normal" font-style="normal" xml:space="preserve">.</text>
</g>
</g>
</svg>